<svg xmlns="http://www.w3.org/2000/svg" width="100" height="100" viewBox="0 0 100 100">
  <defs>
    <linearGradient id="gs" x1="0%" y1="0%" x2="100%" y2="100%">
      <stop offset="0%" stop-color="#3498DB"/>
      <stop offset="100%" stop-color="#1a6fa8"/>
    </linearGradient>
  </defs>
  <rect width="100" height="100" rx="22" fill="url(#gs)"/>
  <g transform="translate(7.82,13.09) scale(2.6364)">
    <path d="M5,16 C5,9.4 9.9,4 16,4 C22.1,4 27,9.4 27,16"
          stroke="#fff" stroke-width="0.8344827586206898" stroke-linecap="round" fill="none"/>
    <path d="M8.5,16 C8.5,11.3 11.9,7.5 16,7.5 C20.1,7.5 23.5,11.3 23.5,16 C23.5,19 22.5,22 20,24"
          stroke="#fff" stroke-width="0.8344827586206898" stroke-linecap="round" fill="none"/>
    <path d="M12,16 C12,13.2 13.8,11 16,11 C18.2,11 20,13.2 20,16 C20,18.8 18.8,22 16,24"
          stroke="#fff" stroke-width="0.8344827586206898" stroke-linecap="round" fill="none"/>
    <line x1="16" y1="14" x2="16" y2="24"
          stroke="#fff" stroke-width="0.8344827586206898" stroke-linecap="round"/>
  </g>
</svg>
